# xmcd
#
# Track frame offsets:
# 150
# 18690
# 36385
# 51273
# 65846
# 86396
# 105379
# 126119
# 142867
# 170732
# 190175
# 207213
#
# Disc length: 2974 seconds
#
#
# Revision: 5
# Processed by: cddbd v1.5PL3 Copyright (c) Steve Scherf et al.
# Submitted via: FreeRIP 2.70 
#
DISCID=aa0b9c0c
DTITLE=Luis Miguel - Amarte es un Placer
DYEAR=1999
DGENRE=Ballad
TTITLE0=Tu Mirada
TTITLE1=Soy Yo
TTITLE2=Sol, Arena y Mar
TTITLE3=O tu o Ninguna
TTITLE4=Quiero
TTITLE5=Dormir Contigo
TTITLE6=Dimelo en un Beso
TTITLE7=No me Fio
TTITLE8=Te Propongo esta Noche
TTITLE9=Tu solo Tu
TTITLE10=Ese Momento
TTITLE11=Amarte es un Placer
EXTD=
EXTT0=
EXTT1=
EXTT2=
EXTT3=
EXTT4=
EXTT5=
EXTT6=
EXTT7=
EXTT8=
EXTT9=
EXTT10=
EXTT11=
PLAYORDER=
